<svg width="20" height="19" fill="none" xmlns="http://www.w3.org/2000/svg"><g clip-path="url(#clip0)" fill="#fff"><path d="M11.767 9.381a1.796 1.796 0 11-3.591 0 1.796 1.796 0 013.591 0z"/><path d="M14.17 6.204a1.67 1.67 0 00-.402-.62 1.669 1.669 0 00-.62-.402c-.19-.074-.475-.162-1-.185-.568-.026-.738-.032-2.177-.032-1.438 0-1.609.006-2.177.031-.525.024-.81.112-1 .186a1.667 1.667 0 00-.62.403 1.67 1.67 0 00-.402.62c-.074.19-.162.474-.186 1-.025.568-.031.738-.031 2.176 0 1.439.006 1.61.031 2.177.024.526.112.81.186 1 .086.235.224.446.403.62.174.179.385.316.62.403.189.074.474.161 1 .185.567.026.738.032 2.176.032 1.439 0 1.61-.006 2.177-.032.525-.024.81-.111 1-.185.47-.181.841-.553 1.023-1.023.073-.19.161-.474.185-1 .026-.568.031-.738.031-2.177 0-1.438-.005-1.608-.03-2.176-.025-.526-.112-.81-.186-1zm-4.199 5.943a2.766 2.766 0 110-5.532 2.766 2.766 0 010 5.532zm2.876-4.995a.646.646 0 110-1.293.646.646 0 010 1.293z"/><path d="M9.971 0C4.791 0 .591 4.2.591 9.381c0 5.18 4.2 9.381 9.38 9.381 5.18 0 9.382-4.2 9.382-9.38A9.382 9.382 0 009.97 0zm5.355 11.602c-.026.574-.117.965-.25 1.308a2.755 2.755 0 01-1.576 1.575c-.343.133-.734.225-1.308.25-.574.027-.758.033-2.22.033-1.464 0-1.647-.006-2.222-.032-.573-.027-.965-.118-1.307-.25a2.64 2.64 0 01-.954-.622 2.64 2.64 0 01-.622-.954c-.133-.343-.224-.734-.25-1.308-.026-.574-.033-.758-.033-2.22 0-1.464.007-1.647.033-2.222.026-.573.117-.965.25-1.307.135-.36.348-.685.622-.954.269-.274.594-.487.954-.622.342-.133.734-.224 1.307-.25.575-.026.758-.033 2.221-.033s1.647.007 2.221.033c.574.026.965.117 1.308.25.36.135.685.348.954.622.274.269.486.594.621.954.134.342.225.734.25 1.307.027.575.033.758.033 2.221s-.006 1.647-.032 2.221z"/></g><defs><clipPath id="clip0"><path fill="#fff" transform="translate(.59)" d="M0 0h18.762v18.762H0z"/></clipPath></defs></svg>