<svg width="20" height="19" viewBox="0 0 20 19" fill="none" xmlns="http://www.w3.org/2000/svg">
<g clip-path="url(#clip0)">
<path d="M11.767 9.38127C11.767 10.373 10.9631 11.1769 9.97141 11.1769C8.97969 11.1769 8.17578 10.373 8.17578 9.38127C8.17578 8.38954 8.97969 7.58563 9.97141 7.58563C10.9631 7.58563 11.767 8.38954 11.767 9.38127Z" fill="white"/>
<path d="M14.1707 6.20428C14.0843 5.97038 13.9466 5.75866 13.7677 5.58488C13.5939 5.40595 13.3823 5.26824 13.1483 5.18192C12.9585 5.1082 12.6733 5.02046 12.1481 4.99655C11.58 4.97064 11.4096 4.96506 9.9713 4.96506C8.53281 4.96506 8.36247 4.9705 7.79446 4.99641C7.26926 5.02046 6.98397 5.1082 6.7943 5.18192C6.56025 5.26824 6.34854 5.40595 6.1749 5.58488C5.99597 5.75866 5.85826 5.97023 5.7718 6.20428C5.69808 6.39409 5.61033 6.67938 5.58642 7.20459C5.56051 7.7726 5.55493 7.94294 5.55493 9.38142C5.55493 10.8198 5.56051 10.9901 5.58642 11.5583C5.61033 12.0835 5.69808 12.3686 5.7718 12.5584C5.85826 12.7925 5.99582 13.004 6.17476 13.1778C6.34854 13.3568 6.56011 13.4945 6.79415 13.5808C6.98397 13.6546 7.26926 13.7424 7.79446 13.7663C8.36247 13.7922 8.53267 13.7976 9.97115 13.7976C11.4098 13.7976 11.5801 13.7922 12.148 13.7663C12.6732 13.7424 12.9585 13.6546 13.1483 13.5808C13.6181 13.3996 13.9894 13.0282 14.1707 12.5584C14.2444 12.3686 14.3321 12.0835 14.3562 11.5583C14.3821 10.9901 14.3875 10.8198 14.3875 9.38142C14.3875 7.94294 14.3821 7.7726 14.3562 7.20459C14.3323 6.67938 14.2445 6.39409 14.1707 6.20428ZM9.9713 12.1474C8.44349 12.1474 7.20498 10.9091 7.20498 9.38128C7.20498 7.85347 8.44349 6.61511 9.9713 6.61511C11.499 6.61511 12.7375 7.85347 12.7375 9.38128C12.7375 10.9091 11.499 12.1474 9.9713 12.1474ZM12.8468 7.1522C12.4898 7.1522 12.2004 6.86275 12.2004 6.50575C12.2004 6.14874 12.4898 5.8593 12.8468 5.8593C13.2038 5.8593 13.4933 6.14874 13.4933 6.50575C13.4931 6.86275 13.2038 7.1522 12.8468 7.1522Z" fill="white"/>
<path d="M9.97136 0C4.79102 0 0.590088 4.20093 0.590088 9.38127C0.590088 14.5616 4.79102 18.7625 9.97136 18.7625C15.1517 18.7625 19.3526 14.5616 19.3526 9.38127C19.3526 4.20093 15.1517 0 9.97136 0ZM15.3258 11.6022C15.2997 12.1756 15.2085 12.5671 15.0754 12.9098C14.7955 13.6334 14.2235 14.2055 13.4999 14.4853C13.1574 14.6184 12.7657 14.7095 12.1924 14.7357C11.618 14.7619 11.4345 14.7682 9.9715 14.7682C8.5084 14.7682 8.32502 14.7619 7.75043 14.7357C7.17713 14.7095 6.78548 14.6184 6.44293 14.4853C6.08335 14.35 5.75783 14.138 5.48871 13.8639C5.21473 13.5949 5.00273 13.2693 4.86746 12.9098C4.73433 12.5673 4.64315 12.1756 4.61709 11.6023C4.59061 11.0277 4.58446 10.8442 4.58446 9.38127C4.58446 7.91831 4.59061 7.73479 4.61695 7.16035C4.643 6.5869 4.73404 6.19539 4.86717 5.8527C5.00244 5.49326 5.21459 5.1676 5.48871 4.89863C5.75769 4.6245 6.08335 4.4125 6.44279 4.27723C6.78548 4.1441 7.17699 4.05306 7.75043 4.02686C8.32488 4.00067 8.5084 3.99437 9.97136 3.99437C11.4343 3.99437 11.6178 4.00067 12.1923 4.02701C12.7657 4.05306 13.1572 4.1441 13.4999 4.27708C13.8594 4.41236 14.185 4.6245 14.4541 4.89863C14.7281 5.16774 14.9403 5.49326 15.0754 5.8527C15.2087 6.19539 15.2997 6.5869 15.3259 7.16035C15.3521 7.73479 15.3583 7.91831 15.3583 9.38127C15.3583 10.8442 15.3521 11.0277 15.3258 11.6022Z" fill="white"/>
</g>
<defs>
<clipPath id="clip0">
<rect width="18.7625" height="18.7625" fill="white" transform="translate(0.590088)"/>
</clipPath>
</defs>
</svg>
